<svg width="18" height="19" viewBox="0 0 18 19" fill="none" xmlns="http://www.w3.org/2000/svg">
<path d="M17.7188 9.64001C17.7188 14.4564 13.7812 18.3588 9 18.3588C4.18359 18.3588 0.28125 14.4564 0.28125 9.64001C0.28125 4.85876 4.18359 0.921265 9 0.921265C13.7812 0.921265 17.7188 4.85876 17.7188 9.64001ZM7.98047 14.2806L14.4492 7.81189C14.6602 7.60095 14.6602 7.21423 14.4492 7.0033L13.6406 6.22986C13.4297 5.98376 13.0781 5.98376 12.8672 6.22986L7.59375 11.5033L5.09766 9.04236C4.88672 8.79626 4.53516 8.79626 4.32422 9.04236L3.51562 9.8158C3.30469 10.0267 3.30469 10.4135 3.51562 10.6244L7.17188 14.2806C7.38281 14.4916 7.76953 14.4916 7.98047 14.2806Z" fill="#004D5B"/>
</svg>
