<svg width="458" height="379" viewBox="0 0 458 379" fill="none" xmlns="http://www.w3.org/2000/svg">
<g opacity="0.27">
<path d="M307.589 86.0407V28.7582L357.411 0L407 28.7582V86.0407L357.411 114.799L307.589 86.0407Z" fill="white"/>
</g>
<g opacity="0.41">
<path d="M205.839 86.0407V28.7582L255.428 0L305.25 28.7582V86.0407L255.428 114.799L205.839 86.0407Z" fill="white"/>
</g>
<g opacity="0.5">
<path d="M104.09 86.0407V28.7582L153.678 0L203.5 28.7582V86.0407L153.678 114.799L104.09 86.0407Z" fill="white"/>
</g>
<g opacity="0.3">
<path d="M2.3391 86.0407V28.7582L51.9276 0L101.75 28.7582V86.0407L51.9276 114.799L2.3391 86.0407Z" fill="white"/>
</g>
<g opacity="0.58">
<path d="M154.847 174.186V116.669L204.67 88.145L254.258 116.669V174.186L204.67 202.71L154.847 174.186Z" fill="white"/>
<path d="M256.609 173.535V116.019L306.432 87.4944L356.02 116.019V173.535L306.432 202.059L256.609 173.535Z" fill="white"/>
</g>
<g opacity="0.33">
<path d="M53.0974 174.186V116.669L102.92 88.145L152.508 116.669V174.186L102.92 202.71L53.0974 174.186Z" fill="white"/>
</g>
<g opacity="0.25">
<path d="M1.16928 88.145L50.7578 116.669V174.186L1.16928 202.71" fill="white"/>
</g>
<g opacity="0.41">
<path d="M307.589 262.331V204.814L357.411 176.056L407 204.814V262.331L357.411 290.855L307.589 262.331Z" fill="white"/>
</g>
<g opacity="0.5">
<path d="M205.839 262.331V204.814L255.428 176.056L305.25 204.814V262.331L255.428 290.855L205.839 262.331Z" fill="white"/>
</g>
<g opacity="0.6">
<path d="M104.09 262.331V204.814L153.678 176.056L203.5 204.814V262.331L153.678 290.855L104.09 262.331Z" fill="white"/>
</g>
<g opacity="0.21">
<path d="M2.3391 262.331V204.814L51.9276 176.056L101.75 204.814V262.331L51.9276 290.855L2.3391 262.331Z" fill="white"/>
</g>
<g opacity="0.31">
<path d="M256.597 350.242V292.959L306.42 264.201L356.008 292.959V350.242L306.42 379L256.597 350.242Z" fill="white"/>
</g>
<g opacity="0.25">
<path d="M154.847 350.242V292.959L204.67 264.201L254.258 292.959V350.242L204.67 379L154.847 350.242Z" fill="white"/>
<path d="M358.316 174.445V117.162L408.139 88.4043L457.727 117.162V174.445L408.139 203.203L358.316 174.445Z" fill="white"/>
</g>
<g opacity="0.52">
<path d="M53.0974 350.242V292.959L102.92 264.201L152.508 292.959V350.242L102.92 379L53.0974 350.242Z" fill="white"/>
</g>
<g opacity="0.52">
<path d="M1.16928 264.201L50.7578 292.959V350.242L1.16928 379" fill="white"/>
</g>
</svg>
