<svg width="1864" height="590" viewBox="0 0 1864 590" fill="none" xmlns="http://www.w3.org/2000/svg">
<path d="M357.635 1C178.313 28.113 -102.831 82.9829 40.1978 256.193C222.212 476.616 666.996 418.871 469.452 589" stroke="white" stroke-opacity="0.67" stroke-width="0.29"/>
<path d="M525.635 1C346.313 28.113 65.1693 82.9829 208.198 256.193C390.212 476.616 834.996 418.871 637.452 589" stroke="white" stroke-opacity="0.67" stroke-width="0.29"/>
<path d="M693.635 1C514.313 28.113 233.169 82.9829 376.198 256.193C558.212 476.616 1003 418.871 805.452 589" stroke="white" stroke-opacity="0.67" stroke-width="0.29"/>
<path d="M861.635 1C682.313 28.113 401.169 82.9829 544.198 256.193C726.212 476.616 1171 418.871 973.452 589" stroke="white" stroke-opacity="0.67" stroke-width="0.29"/>
<path d="M1029.63 1C850.313 28.113 569.169 82.9829 712.198 256.193C894.212 476.616 1339 418.871 1141.45 589" stroke="white" stroke-opacity="0.67" stroke-width="0.29"/>
<path d="M1197.63 1C1018.31 28.113 737.169 82.9829 880.198 256.193C1062.21 476.616 1507 418.871 1309.45 589" stroke="white" stroke-opacity="0.67" stroke-width="0.29"/>
<path d="M1365.63 1C1186.31 28.113 905.169 82.9829 1048.2 256.193C1230.21 476.616 1675 418.871 1477.45 589" stroke="white" stroke-opacity="0.67" stroke-width="0.29"/>
<path d="M1533.63 1C1354.31 28.113 1073.17 82.9829 1216.2 256.193C1398.21 476.616 1843 418.871 1645.45 589" stroke="white" stroke-opacity="0.67" stroke-width="0.29"/>
<path d="M1701.63 1C1522.31 28.113 1241.17 82.9829 1384.2 256.193C1566.21 476.616 2011 418.871 1813.45 589" stroke="white" stroke-opacity="0.67" stroke-width="0.29"/>
</svg>
